<svg data-v-fde0c5aa="" xmlns="http://www.w3.org/2000/svg" viewBox="0 0 300 300" class="font"><!----><defs data-v-fde0c5aa=""><linearGradient data-v-fde0c5aa="" gradientTransform="rotate(25)" id="496c6a8b-1b45-445d-adc5-045ae96e196a" x1="0%" y1="0%" x2="100%" y2="0%"><stop data-v-fde0c5aa="" offset="0%" stop-color="#181B80" stop-opacity="1"></stop><stop data-v-fde0c5aa="" offset="100%" stop-color="#181ED9" stop-opacity="1"></stop></linearGradient></defs><rect data-v-fde0c5aa="" fill="url(#496c6a8b-1b45-445d-adc5-045ae96e196a)" x="0" y="0" width="300px" height="300px" class="logo-background-square"></rect><defs data-v-fde0c5aa=""><!----></defs><g data-v-fde0c5aa="" id="7e8abf08-5e86-4284-ae33-13cfbcc39d1f" fill="#ffffff" transform="matrix(3.260708404026131,0,0,3.260708404026131,38.630502415890085,123.9306335733157)"><path d="M3.70 13.13L3.70 13.13Q2.75 13.13 2.13 12.95Q1.50 12.78 1.12 12.50Q0.74 12.22 0.58 11.87Q0.42 11.52 0.42 11.18L0.42 11.18Q0.42 10.81 0.55 10.57Q0.68 10.32 0.91 10.17Q1.13 10.01 1.41 9.94Q1.70 9.87 2.00 9.87L2.00 9.87Q2.00 10.47 2.15 10.93Q2.29 11.38 2.54 11.69Q2.80 11.99 3.15 12.14Q3.50 12.30 3.92 12.30L3.92 12.30Q4.33 12.30 4.65 12.18Q4.97 12.07 5.20 11.86Q5.42 11.66 5.54 11.38Q5.65 11.10 5.65 10.78L5.65 10.78Q5.65 10.42 5.51 10.15Q5.37 9.87 5.08 9.64Q4.79 9.40 4.34 9.18Q3.90 8.97 3.32 8.72L3.32 8.72Q2.58 8.42 2.08 8.10Q1.58 7.79 1.27 7.42Q0.96 7.05 0.83 6.62Q0.70 6.19 0.70 5.67L0.70 5.67Q0.70 5.03 0.96 4.51Q1.22 3.99 1.67 3.62Q2.13 3.25 2.76 3.06Q3.39 2.86 4.13 2.86L4.13 2.86Q4.90 2.86 5.46 2.98Q6.02 3.11 6.39 3.33Q6.75 3.55 6.93 3.85Q7.11 4.14 7.11 4.48L7.11 4.48Q7.11 4.73 7.00 4.94Q6.90 5.15 6.68 5.31Q6.47 5.47 6.14 5.56Q5.82 5.65 5.39 5.65L5.39 5.65Q5.39 5.35 5.31 5.01Q5.23 4.68 5.05 4.39Q4.87 4.09 4.59 3.90Q4.31 3.71 3.90 3.71L3.90 3.71Q3.62 3.71 3.37 3.79Q3.12 3.88 2.93 4.04Q2.74 4.20 2.63 4.45Q2.52 4.69 2.52 5.00L2.52 5.00Q2.52 5.30 2.62 5.56Q2.71 5.82 2.97 6.07Q3.23 6.32 3.67 6.57Q4.12 6.82 4.83 7.10L4.83 7.10Q5.55 7.40 6.06 7.70Q6.56 8.01 6.89 8.36Q7.21 8.72 7.36 9.14Q7.51 9.56 7.51 10.07L7.51 10.07Q7.51 10.75 7.24 11.31Q6.97 11.87 6.47 12.28Q5.97 12.68 5.27 12.91Q4.57 13.13 3.70 13.13ZM12.60 12.00L12.60 12.00Q12.87 12.00 13.12 11.97Q13.37 11.93 13.59 11.87L13.59 11.87L13.59 12.78Q13.48 12.84 13.29 12.90Q13.10 12.96 12.85 13.01Q12.61 13.06 12.29 13.10Q11.98 13.13 11.61 13.13L11.61 13.13Q11.14 13.13 10.75 13.02Q10.37 12.91 10.10 12.64Q9.84 12.38 9.69 11.96Q9.55 11.54 9.55 10.92L9.55 10.92L9.55 6.45L8.50 6.45L8.50 5.73Q8.95 5.73 9.30 5.55Q9.66 5.37 9.87 5.14L9.87 5.14Q10.30 4.69 10.51 3.75L10.51 3.75L11.68 3.75L11.68 5.49L13.47 5.49L13.47 6.45L11.68 6.45L11.68 10.78Q11.68 11.42 11.89 11.71Q12.11 12.00 12.60 12.00ZM18.83 12.25L18.83 13.00L14.15 13.00L14.15 12.25L14.19 12.25Q14.43 12.25 14.63 12.22Q14.83 12.18 14.97 12.08Q15.11 11.97 15.19 11.77Q15.27 11.57 15.27 11.25L15.27 11.25L15.27 7.18Q15.27 6.88 15.20 6.69Q15.13 6.50 14.99 6.40Q14.86 6.30 14.68 6.27Q14.49 6.23 14.26 6.23L14.26 6.23L14.22 6.23L14.22 5.49L17.05 5.49L17.33 6.58L17.40 6.58Q17.53 6.27 17.70 6.03Q17.86 5.80 18.09 5.64Q18.32 5.48 18.63 5.40Q18.94 5.33 19.37 5.33L19.37 5.33Q20.20 5.33 20.59 5.62Q20.98 5.91 20.98 6.46L20.98 6.46Q20.98 7.10 20.51 7.46Q20.05 7.81 19.20 7.81L19.20 7.81Q19.20 7.53 19.17 7.31Q19.14 7.09 19.06 6.95Q18.98 6.80 18.85 6.73Q18.72 6.65 18.52 6.65L18.52 6.65Q18.27 6.65 18.09 6.77Q17.92 6.90 17.79 7.09Q17.67 7.29 17.59 7.53Q17.51 7.78 17.47 8.03Q17.42 8.28 17.41 8.50Q17.40 8.73 17.40 8.89L17.40 8.89L17.40 11.31Q17.40 11.62 17.47 11.81Q17.55 12.00 17.68 12.09Q17.81 12.19 17.99 12.22Q18.17 12.25 18.38 12.25L18.38 12.25L18.83 12.25ZM30.18 13.00L27.39 13.00L27.08 12.00L27.02 12.00Q26.80 12.37 26.56 12.59Q26.31 12.81 26.03 12.93Q25.75 13.05 25.44 13.09Q25.13 13.13 24.80 13.13L24.80 13.13Q23.71 13.13 23.12 12.46Q22.54 11.78 22.54 10.36L22.54 10.36L22.54 7.23Q22.54 6.92 22.48 6.73Q22.43 6.54 22.31 6.43Q22.20 6.32 22.02 6.28Q21.83 6.23 21.58 6.23L21.58 6.23L21.55 6.23L21.55 5.49L24.66 5.49L24.66 9.97Q24.66 10.42 24.72 10.79Q24.77 11.15 24.89 11.41Q25.01 11.66 25.22 11.80Q25.42 11.94 25.73 11.94L25.73 11.94Q26.07 11.94 26.31 11.80Q26.55 11.65 26.70 11.37Q26.86 11.09 26.93 10.70Q27.00 10.31 27.00 9.82L27.00 9.82L27.00 7.13Q27.00 6.82 26.92 6.64Q26.84 6.47 26.70 6.37Q26.56 6.28 26.38 6.26Q26.20 6.23 25.99 6.23L25.99 6.23L25.95 6.23L25.95 5.49L29.13 5.49L29.13 11.37Q29.13 11.68 29.20 11.85Q29.27 12.02 29.39 12.11Q29.52 12.20 29.69 12.23Q29.86 12.25 30.06 12.25L30.06 12.25L30.18 12.25L30.18 13.00ZM34.66 13.13L34.66 13.13Q33.89 13.13 33.25 12.93Q32.61 12.74 32.15 12.28Q31.69 11.82 31.44 11.08Q31.19 10.34 31.19 9.27L31.19 9.27Q31.19 8.13 31.45 7.38Q31.71 6.62 32.17 6.16Q32.63 5.70 33.26 5.51Q33.89 5.31 34.62 5.31L34.62 5.31Q35.29 5.31 35.81 5.42Q36.33 5.54 36.68 5.74Q37.03 5.93 37.21 6.20Q37.39 6.47 37.39 6.78L37.39 6.78Q37.39 7.01 37.31 7.22Q37.24 7.44 37.03 7.60Q36.83 7.77 36.48 7.87Q36.13 7.97 35.58 7.97L35.58 7.97Q35.58 7.61 35.54 7.28Q35.49 6.95 35.39 6.71Q35.29 6.46 35.11 6.31Q34.94 6.17 34.67 6.17L34.67 6.17Q34.36 6.17 34.12 6.31Q33.88 6.46 33.70 6.82Q33.53 7.17 33.44 7.77Q33.35 8.36 33.35 9.26L33.35 9.26Q33.35 10.68 33.74 11.38Q34.13 12.09 35.01 12.09L35.01 12.09Q35.37 12.09 35.69 12.00Q36.00 11.92 36.26 11.76Q36.52 11.61 36.72 11.40Q36.91 11.19 37.04 10.95L37.04 10.95Q37.21 11.05 37.29 11.23Q37.37 11.40 37.37 11.59L37.37 11.59Q37.37 11.86 37.21 12.13Q37.06 12.41 36.73 12.63Q36.39 12.85 35.88 12.99Q35.37 13.13 34.66 13.13ZM42.30 12.00L42.30 12.00Q42.57 12.00 42.82 11.97Q43.07 11.93 43.29 11.87L43.29 11.87L43.29 12.78Q43.18 12.84 42.99 12.90Q42.81 12.96 42.56 13.01Q42.31 13.06 41.99 13.10Q41.68 13.13 41.31 13.13L41.31 13.13Q40.84 13.13 40.46 13.02Q40.07 12.91 39.81 12.64Q39.54 12.38 39.40 11.96Q39.25 11.54 39.25 10.92L39.25 10.92L39.25 6.45L38.20 6.45L38.20 5.73Q38.65 5.73 39.01 5.55Q39.36 5.37 39.57 5.14L39.57 5.14Q40.00 4.69 40.22 3.75L40.22 3.75L41.38 3.75L41.38 5.49L43.17 5.49L43.17 6.45L41.38 6.45L41.38 10.78Q41.38 11.42 41.59 11.71Q41.81 12.00 42.30 12.00ZM52.56 13.00L49.77 13.00L49.46 12.00L49.40 12.00Q49.18 12.37 48.94 12.59Q48.69 12.81 48.41 12.93Q48.13 13.05 47.82 13.09Q47.51 13.13 47.18 13.13L47.18 13.13Q46.09 13.13 45.50 12.46Q44.92 11.78 44.92 10.36L44.92 10.36L44.92 7.23Q44.92 6.92 44.86 6.73Q44.81 6.54 44.69 6.43Q44.58 6.32 44.40 6.28Q44.21 6.23 43.96 6.23L43.96 6.23L43.93 6.23L43.93 5.49L47.04 5.49L47.04 9.97Q47.04 10.42 47.10 10.79Q47.15 11.15 47.27 11.41Q47.39 11.66 47.60 11.80Q47.80 11.94 48.11 11.94L48.11 11.94Q48.45 11.94 48.69 11.80Q48.93 11.65 49.09 11.37Q49.24 11.09 49.31 10.70Q49.38 10.31 49.38 9.82L49.38 9.82L49.38 7.13Q49.38 6.82 49.30 6.64Q49.22 6.47 49.08 6.37Q48.95 6.28 48.76 6.26Q48.58 6.23 48.37 6.23L48.37 6.23L48.33 6.23L48.33 5.49L51.51 5.49L51.51 11.37Q51.51 11.68 51.58 11.85Q51.65 12.02 51.78 12.11Q51.90 12.20 52.07 12.23Q52.24 12.25 52.45 12.25L52.45 12.25L52.56 12.25L52.56 13.00ZM57.87 12.25L57.87 13.00L53.19 13.00L53.19 12.25L53.23 12.25Q53.47 12.25 53.67 12.22Q53.87 12.18 54.01 12.08Q54.15 11.97 54.23 11.77Q54.31 11.57 54.31 11.25L54.31 11.25L54.31 7.18Q54.31 6.88 54.24 6.69Q54.17 6.50 54.03 6.40Q53.90 6.30 53.72 6.27Q53.53 6.23 53.30 6.23L53.30 6.23L53.26 6.23L53.26 5.49L56.09 5.49L56.37 6.58L56.44 6.58Q56.57 6.27 56.74 6.03Q56.90 5.80 57.13 5.64Q57.36 5.48 57.67 5.40Q57.98 5.33 58.41 5.33L58.41 5.33Q59.24 5.33 59.63 5.62Q60.02 5.91 60.02 6.46L60.02 6.46Q60.02 7.10 59.55 7.46Q59.09 7.81 58.24 7.81L58.24 7.81Q58.24 7.53 58.21 7.31Q58.18 7.09 58.10 6.95Q58.02 6.80 57.89 6.73Q57.76 6.65 57.56 6.65L57.56 6.65Q57.31 6.65 57.13 6.77Q56.96 6.90 56.83 7.09Q56.71 7.29 56.63 7.53Q56.55 7.78 56.51 8.03Q56.46 8.28 56.45 8.50Q56.44 8.73 56.44 8.89L56.44 8.89L56.44 11.31Q56.44 11.62 56.51 11.81Q56.59 12.00 56.72 12.09Q56.85 12.19 57.03 12.22Q57.21 12.25 57.42 12.25L57.42 12.25L57.87 12.25ZM62.75 10.91L62.75 10.91Q62.75 11.51 62.95 11.81Q63.14 12.11 63.55 12.11L63.55 12.11Q63.85 12.11 64.09 11.99Q64.33 11.86 64.51 11.63Q64.68 11.40 64.77 11.06Q64.87 10.73 64.87 10.32L64.87 10.32L64.87 9.27L64.24 9.31Q63.82 9.33 63.53 9.44Q63.25 9.56 63.08 9.75Q62.90 9.95 62.83 10.24Q62.75 10.53 62.75 10.91ZM64.00 6.17L64.00 6.17Q63.73 6.17 63.55 6.28Q63.37 6.39 63.26 6.59Q63.15 6.79 63.11 7.07Q63.06 7.35 63.06 7.68L63.06 7.68Q62.12 7.68 61.64 7.46Q61.17 7.25 61.17 6.74L61.17 6.74Q61.17 6.36 61.40 6.08Q61.63 5.81 62.02 5.64Q62.41 5.47 62.94 5.39Q63.46 5.31 64.05 5.31L64.05 5.31Q64.79 5.31 65.34 5.44Q65.89 5.56 66.26 5.84Q66.62 6.13 66.81 6.58Q66.99 7.03 66.99 7.69L66.99 7.69L66.99 11.26Q66.99 11.55 67.04 11.74Q67.08 11.93 67.18 12.04Q67.27 12.15 67.44 12.20Q67.60 12.25 67.83 12.25L67.83 12.25L67.89 12.25L67.89 13.00L65.28 13.00L64.99 12.03L64.87 12.03Q64.63 12.31 64.43 12.52Q64.22 12.73 63.99 12.87Q63.76 13.00 63.47 13.07Q63.18 13.13 62.78 13.13L62.78 13.13Q62.32 13.13 61.92 13.00Q61.52 12.86 61.22 12.57Q60.92 12.29 60.75 11.86Q60.58 11.44 60.58 10.86L60.58 10.86Q60.58 9.71 61.36 9.17Q62.15 8.62 63.72 8.57L63.72 8.57L64.87 8.53L64.87 7.76Q64.87 7.41 64.84 7.12Q64.81 6.82 64.72 6.61Q64.63 6.40 64.46 6.28Q64.29 6.17 64.00 6.17Z"></path></g><!----><!----></svg>