<svg data-v-423bf9ae="" xmlns="http://www.w3.org/2000/svg" viewBox="0 0 394.17716814854515 193" class="iconAboveSlogan"><!----><!----><!----><g data-v-423bf9ae="" id="659cfea0-ff0f-4b1a-951e-e0a82958ca18" fill="black" transform="matrix(5.842258203896284,0,0,5.842258203896284,-2.453753499160399,86.29113884948237)"><path d="M3.70 13.13L3.70 13.13Q2.75 13.13 2.13 12.95Q1.50 12.78 1.12 12.50Q0.74 12.22 0.58 11.87Q0.42 11.52 0.42 11.18L0.42 11.18Q0.42 10.81 0.55 10.57Q0.68 10.32 0.91 10.17Q1.13 10.01 1.41 9.94Q1.70 9.87 2.00 9.87L2.00 9.87Q2.00 10.47 2.15 10.93Q2.29 11.38 2.54 11.69Q2.80 11.99 3.15 12.14Q3.50 12.30 3.92 12.30L3.92 12.30Q4.33 12.30 4.65 12.18Q4.97 12.07 5.20 11.86Q5.42 11.66 5.54 11.38Q5.65 11.10 5.65 10.78L5.65 10.78Q5.65 10.42 5.51 10.15Q5.37 9.87 5.08 9.64Q4.79 9.40 4.34 9.18Q3.90 8.97 3.32 8.72L3.32 8.72Q2.58 8.42 2.08 8.10Q1.58 7.79 1.27 7.42Q0.96 7.05 0.83 6.62Q0.70 6.19 0.70 5.67L0.70 5.67Q0.70 5.03 0.96 4.51Q1.22 3.99 1.67 3.62Q2.13 3.25 2.76 3.06Q3.39 2.86 4.13 2.86L4.13 2.86Q4.90 2.86 5.46 2.98Q6.02 3.11 6.39 3.33Q6.75 3.55 6.93 3.85Q7.11 4.14 7.11 4.48L7.11 4.48Q7.11 4.73 7.00 4.94Q6.90 5.15 6.68 5.31Q6.47 5.47 6.14 5.56Q5.82 5.65 5.39 5.65L5.39 5.65Q5.39 5.35 5.31 5.01Q5.23 4.68 5.05 4.39Q4.87 4.09 4.59 3.90Q4.31 3.71 3.90 3.71L3.90 3.71Q3.62 3.71 3.37 3.79Q3.12 3.88 2.93 4.04Q2.74 4.20 2.63 4.45Q2.52 4.69 2.52 5.00L2.52 5.00Q2.52 5.30 2.62 5.56Q2.71 5.82 2.97 6.07Q3.23 6.32 3.67 6.57Q4.12 6.82 4.83 7.10L4.83 7.10Q5.55 7.40 6.06 7.70Q6.56 8.01 6.89 8.36Q7.21 8.72 7.36 9.14Q7.51 9.56 7.51 10.07L7.51 10.07Q7.51 10.75 7.24 11.31Q6.97 11.87 6.47 12.28Q5.97 12.68 5.27 12.91Q4.57 13.13 3.70 13.13ZM12.60 12.00L12.60 12.00Q12.87 12.00 13.12 11.97Q13.37 11.93 13.59 11.87L13.59 11.87L13.59 12.78Q13.48 12.84 13.29 12.90Q13.10 12.96 12.85 13.01Q12.61 13.06 12.29 13.10Q11.98 13.13 11.61 13.13L11.61 13.13Q11.14 13.13 10.75 13.02Q10.37 12.91 10.10 12.64Q9.84 12.38 9.69 11.96Q9.55 11.54 9.55 10.92L9.55 10.92L9.55 6.45L8.50 6.45L8.50 5.73Q8.95 5.73 9.30 5.55Q9.66 5.37 9.87 5.14L9.87 5.14Q10.30 4.69 10.51 3.75L10.51 3.75L11.68 3.75L11.68 5.49L13.47 5.49L13.47 6.45L11.68 6.45L11.68 10.78Q11.68 11.42 11.89 11.71Q12.11 12.00 12.60 12.00ZM18.83 12.25L18.83 13.00L14.15 13.00L14.15 12.25L14.19 12.25Q14.43 12.25 14.63 12.22Q14.83 12.18 14.97 12.08Q15.11 11.97 15.19 11.77Q15.27 11.57 15.27 11.25L15.27 11.25L15.27 7.18Q15.27 6.88 15.20 6.69Q15.13 6.50 14.99 6.40Q14.86 6.30 14.68 6.27Q14.49 6.23 14.26 6.23L14.26 6.23L14.22 6.23L14.22 5.49L17.05 5.49L17.33 6.58L17.40 6.58Q17.53 6.27 17.70 6.03Q17.86 5.80 18.09 5.64Q18.32 5.48 18.63 5.40Q18.94 5.33 19.37 5.33L19.37 5.33Q20.20 5.33 20.59 5.62Q20.98 5.91 20.98 6.46L20.98 6.46Q20.98 7.10 20.51 7.46Q20.05 7.81 19.20 7.81L19.20 7.81Q19.20 7.53 19.17 7.31Q19.14 7.09 19.06 6.95Q18.98 6.80 18.85 6.73Q18.72 6.65 18.52 6.65L18.52 6.65Q18.27 6.65 18.09 6.77Q17.92 6.90 17.79 7.09Q17.67 7.29 17.59 7.53Q17.51 7.78 17.47 8.03Q17.42 8.28 17.41 8.50Q17.40 8.73 17.40 8.89L17.40 8.89L17.40 11.31Q17.40 11.62 17.47 11.81Q17.55 12.00 17.68 12.09Q17.81 12.19 17.99 12.22Q18.17 12.25 18.38 12.25L18.38 12.25L18.83 12.25ZM30.18 13.00L27.39 13.00L27.08 12.00L27.02 12.00Q26.80 12.37 26.56 12.59Q26.31 12.81 26.03 12.93Q25.75 13.05 25.44 13.09Q25.13 13.13 24.80 13.13L24.80 13.13Q23.71 13.13 23.12 12.46Q22.54 11.78 22.54 10.36L22.54 10.36L22.54 7.23Q22.54 6.92 22.48 6.73Q22.43 6.54 22.31 6.43Q22.20 6.32 22.02 6.28Q21.83 6.23 21.58 6.23L21.58 6.23L21.55 6.23L21.55 5.49L24.66 5.49L24.66 9.97Q24.66 10.42 24.72 10.79Q24.77 11.15 24.89 11.41Q25.01 11.66 25.22 11.80Q25.42 11.94 25.73 11.94L25.73 11.94Q26.07 11.94 26.31 11.80Q26.55 11.65 26.70 11.37Q26.86 11.09 26.93 10.70Q27.00 10.31 27.00 9.82L27.00 9.82L27.00 7.13Q27.00 6.82 26.92 6.64Q26.84 6.47 26.70 6.37Q26.56 6.28 26.38 6.26Q26.20 6.23 25.99 6.23L25.99 6.23L25.95 6.23L25.95 5.49L29.13 5.49L29.13 11.37Q29.13 11.68 29.20 11.85Q29.27 12.02 29.39 12.11Q29.52 12.20 29.69 12.23Q29.86 12.25 30.06 12.25L30.06 12.25L30.18 12.25L30.18 13.00ZM34.66 13.13L34.66 13.13Q33.89 13.13 33.25 12.93Q32.61 12.74 32.15 12.28Q31.69 11.82 31.44 11.08Q31.19 10.34 31.19 9.27L31.19 9.27Q31.19 8.13 31.45 7.38Q31.71 6.62 32.17 6.16Q32.63 5.70 33.26 5.51Q33.89 5.31 34.62 5.31L34.62 5.31Q35.29 5.31 35.81 5.42Q36.33 5.54 36.68 5.74Q37.03 5.93 37.21 6.20Q37.39 6.47 37.39 6.78L37.39 6.78Q37.39 7.01 37.31 7.22Q37.24 7.44 37.03 7.60Q36.83 7.77 36.48 7.87Q36.13 7.97 35.58 7.97L35.58 7.97Q35.58 7.61 35.54 7.28Q35.49 6.95 35.39 6.71Q35.29 6.46 35.11 6.31Q34.94 6.17 34.67 6.17L34.67 6.17Q34.36 6.17 34.12 6.31Q33.88 6.46 33.70 6.82Q33.53 7.17 33.44 7.77Q33.35 8.36 33.35 9.26L33.35 9.26Q33.35 10.68 33.74 11.38Q34.13 12.09 35.01 12.09L35.01 12.09Q35.37 12.09 35.69 12.00Q36.00 11.92 36.26 11.76Q36.52 11.61 36.72 11.40Q36.91 11.19 37.04 10.95L37.04 10.95Q37.21 11.05 37.29 11.23Q37.37 11.40 37.37 11.59L37.37 11.59Q37.37 11.86 37.21 12.13Q37.06 12.41 36.73 12.63Q36.39 12.85 35.88 12.99Q35.37 13.13 34.66 13.13ZM42.30 12.00L42.30 12.00Q42.57 12.00 42.82 11.97Q43.07 11.93 43.29 11.87L43.29 11.87L43.29 12.78Q43.18 12.84 42.99 12.90Q42.81 12.96 42.56 13.01Q42.31 13.06 41.99 13.10Q41.68 13.13 41.31 13.13L41.31 13.13Q40.84 13.13 40.46 13.02Q40.07 12.91 39.81 12.64Q39.54 12.38 39.40 11.96Q39.25 11.54 39.25 10.92L39.25 10.92L39.25 6.45L38.20 6.45L38.20 5.73Q38.65 5.73 39.01 5.55Q39.36 5.37 39.57 5.14L39.57 5.14Q40.00 4.69 40.22 3.75L40.22 3.75L41.38 3.75L41.38 5.49L43.17 5.49L43.17 6.45L41.38 6.45L41.38 10.78Q41.38 11.42 41.59 11.71Q41.81 12.00 42.30 12.00ZM52.56 13.00L49.77 13.00L49.46 12.00L49.40 12.00Q49.18 12.37 48.94 12.59Q48.69 12.81 48.41 12.93Q48.13 13.05 47.82 13.09Q47.51 13.13 47.18 13.13L47.18 13.13Q46.09 13.13 45.50 12.46Q44.92 11.78 44.92 10.36L44.92 10.36L44.92 7.23Q44.92 6.92 44.86 6.73Q44.81 6.54 44.69 6.43Q44.58 6.32 44.40 6.28Q44.21 6.23 43.96 6.23L43.96 6.23L43.93 6.23L43.93 5.49L47.04 5.49L47.04 9.97Q47.04 10.42 47.10 10.79Q47.15 11.15 47.27 11.41Q47.39 11.66 47.60 11.80Q47.80 11.94 48.11 11.94L48.11 11.94Q48.45 11.94 48.69 11.80Q48.93 11.65 49.09 11.37Q49.24 11.09 49.31 10.70Q49.38 10.31 49.38 9.82L49.38 9.82L49.38 7.13Q49.38 6.82 49.30 6.64Q49.22 6.47 49.08 6.37Q48.95 6.28 48.76 6.26Q48.58 6.23 48.37 6.23L48.37 6.23L48.33 6.23L48.33 5.49L51.51 5.49L51.51 11.37Q51.51 11.68 51.58 11.85Q51.65 12.02 51.78 12.11Q51.90 12.20 52.07 12.23Q52.24 12.25 52.45 12.25L52.45 12.25L52.56 12.25L52.56 13.00ZM57.87 12.25L57.87 13.00L53.19 13.00L53.19 12.25L53.23 12.25Q53.47 12.25 53.67 12.22Q53.87 12.18 54.01 12.08Q54.15 11.97 54.23 11.77Q54.31 11.57 54.31 11.25L54.31 11.25L54.31 7.18Q54.31 6.88 54.24 6.69Q54.17 6.50 54.03 6.40Q53.90 6.30 53.72 6.27Q53.53 6.23 53.30 6.23L53.30 6.23L53.26 6.23L53.26 5.49L56.09 5.49L56.37 6.58L56.44 6.58Q56.57 6.27 56.74 6.03Q56.90 5.80 57.13 5.64Q57.36 5.48 57.67 5.40Q57.98 5.33 58.41 5.33L58.41 5.33Q59.24 5.33 59.63 5.62Q60.02 5.91 60.02 6.46L60.02 6.46Q60.02 7.10 59.55 7.46Q59.09 7.81 58.24 7.81L58.24 7.81Q58.24 7.53 58.21 7.31Q58.18 7.09 58.10 6.95Q58.02 6.80 57.89 6.73Q57.76 6.65 57.56 6.65L57.56 6.65Q57.31 6.65 57.13 6.77Q56.96 6.90 56.83 7.09Q56.71 7.29 56.63 7.53Q56.55 7.78 56.51 8.03Q56.46 8.28 56.45 8.50Q56.44 8.73 56.44 8.89L56.44 8.89L56.44 11.31Q56.44 11.62 56.51 11.81Q56.59 12.00 56.72 12.09Q56.85 12.19 57.03 12.22Q57.21 12.25 57.42 12.25L57.42 12.25L57.87 12.25ZM62.75 10.91L62.75 10.91Q62.75 11.51 62.95 11.81Q63.14 12.11 63.55 12.11L63.55 12.11Q63.85 12.11 64.09 11.99Q64.33 11.86 64.51 11.63Q64.68 11.40 64.77 11.06Q64.87 10.73 64.87 10.32L64.87 10.32L64.87 9.27L64.24 9.31Q63.82 9.33 63.53 9.44Q63.25 9.56 63.08 9.75Q62.90 9.95 62.83 10.24Q62.75 10.53 62.75 10.91ZM64.00 6.17L64.00 6.17Q63.73 6.17 63.55 6.28Q63.37 6.39 63.26 6.59Q63.15 6.79 63.11 7.07Q63.06 7.35 63.06 7.68L63.06 7.68Q62.12 7.68 61.64 7.46Q61.17 7.25 61.17 6.74L61.17 6.74Q61.17 6.36 61.40 6.08Q61.63 5.81 62.02 5.64Q62.41 5.47 62.94 5.39Q63.46 5.31 64.05 5.31L64.05 5.31Q64.79 5.31 65.34 5.44Q65.89 5.56 66.26 5.84Q66.62 6.13 66.81 6.58Q66.99 7.03 66.99 7.69L66.99 7.69L66.99 11.26Q66.99 11.55 67.04 11.74Q67.08 11.93 67.18 12.04Q67.27 12.15 67.44 12.20Q67.60 12.25 67.83 12.25L67.83 12.25L67.89 12.25L67.89 13.00L65.28 13.00L64.99 12.03L64.87 12.03Q64.63 12.31 64.43 12.52Q64.22 12.73 63.99 12.87Q63.76 13.00 63.47 13.07Q63.18 13.13 62.78 13.13L62.78 13.13Q62.32 13.13 61.92 13.00Q61.52 12.86 61.22 12.57Q60.92 12.29 60.75 11.86Q60.58 11.44 60.58 10.86L60.58 10.86Q60.58 9.71 61.36 9.17Q62.15 8.62 63.72 8.57L63.72 8.57L64.87 8.53L64.87 7.76Q64.87 7.41 64.84 7.12Q64.81 6.82 64.72 6.61Q64.63 6.40 64.46 6.28Q64.29 6.17 64.00 6.17Z"></path></g><!----><g data-v-423bf9ae="" id="2d806b08-508c-4ea3-9361-fea3ae15f87f" transform="matrix(2.5510204964296683,0,0,2.5510204964296683,82.95407766066492,-69.4359187706467)" stroke="none" fill="black"><path data-name="Compound Path" d="M70.15 29.46v11.87H58.28V29.46h11.87m2.1-2.1H56.18v16.06h16.07V27.36zM50.93 29.46v11.87H39.07V29.46h11.86m2.1-2.1H37v16.06h16V27.36zM50.93 48.67v11.87H39.07V48.67h11.86m2.1-2.1H37v16.07h16V46.58zM31.72 48.67v11.87H19.85V48.67h11.87m2.1-2.1H17.75v16.07h16.07V46.58z"></path></g><!----><g data-v-423bf9ae="" id="3ee0d29e-a416-47f0-bd98-9473345e31cd" fill="black" transform="matrix(1.21629589023649,0,0,1.21629589023649,50.13381388863871,196.52483467886415)"><path d="M10.23 3.00L10.23 3.74L9.63 3.74Q9.49 3.74 9.36 3.77Q9.23 3.80 9.13 3.90Q9.03 3.99 8.98 4.17Q8.92 4.35 8.92 4.65L8.92 4.65L8.92 10.11Q8.92 10.81 8.72 11.38Q8.52 11.94 8.09 12.33Q7.66 12.71 7 12.92Q6.34 13.13 5.42 13.13L5.42 13.13Q4.50 13.13 3.78 12.96Q3.06 12.78 2.56 12.40Q2.06 12.02 1.80 11.41Q1.54 10.81 1.54 9.95L1.54 9.95L1.54 4.59Q1.54 4.31 1.48 4.15Q1.42 3.98 1.32 3.89Q1.22 3.80 1.10 3.77Q0.97 3.74 0.83 3.74L0.83 3.74L0.23 3.74L0.23 3.00L5.05 3.00L5.05 3.74L4.46 3.74Q4.32 3.74 4.19 3.77Q4.06 3.80 3.96 3.90Q3.86 3.99 3.81 4.17Q3.75 4.35 3.75 4.65L3.75 4.65L3.75 10.06Q3.75 10.64 3.90 11.04Q4.05 11.44 4.32 11.69Q4.59 11.93 4.98 12.03Q5.36 12.14 5.84 12.14L5.84 12.14Q6.30 12.14 6.68 12.02Q7.05 11.90 7.32 11.65Q7.58 11.40 7.72 11.01Q7.87 10.62 7.87 10.08L7.87 10.08L7.87 4.59Q7.87 4.31 7.81 4.15Q7.76 3.98 7.66 3.89Q7.56 3.80 7.43 3.77Q7.30 3.74 7.16 3.74L7.16 3.74L6.57 3.74L6.57 3.00L10.23 3.00ZM19.43 13.00L16.32 13.00L16.32 8.39Q16.32 7.94 16.27 7.58Q16.21 7.23 16.07 6.99Q15.94 6.75 15.73 6.63Q15.51 6.50 15.20 6.50L15.20 6.50Q14.85 6.50 14.62 6.68Q14.39 6.86 14.25 7.15Q14.11 7.45 14.05 7.84Q13.99 8.24 13.99 8.67L13.99 8.67L13.99 11.34Q13.99 11.63 14.06 11.81Q14.13 11.99 14.26 12.09Q14.39 12.19 14.58 12.22Q14.77 12.25 15.00 12.25L15.00 12.25L15.04 12.25L15.04 13.00L10.74 13.00L10.74 12.25L10.77 12.25Q11.01 12.25 11.20 12.22Q11.40 12.19 11.55 12.09Q11.70 11.98 11.78 11.79Q11.86 11.60 11.86 11.29L11.86 11.29L11.86 7.14Q11.86 6.85 11.79 6.67Q11.72 6.49 11.58 6.40Q11.45 6.30 11.27 6.27Q11.08 6.23 10.85 6.23L10.85 6.23L10.81 6.23L10.81 5.49L13.75 5.49L13.93 6.49L14 6.49Q14.21 6.09 14.45 5.86Q14.68 5.63 14.95 5.50Q15.22 5.38 15.51 5.35Q15.81 5.31 16.14 5.31L16.14 5.31Q16.68 5.31 17.11 5.47Q17.54 5.63 17.84 5.95Q18.14 6.28 18.29 6.79Q18.45 7.30 18.45 8.01L18.45 8.01L18.45 11.26Q18.45 11.59 18.51 11.78Q18.57 11.98 18.68 12.08Q18.80 12.18 18.98 12.22Q19.15 12.25 19.39 12.25L19.39 12.25L19.43 12.25L19.43 13.00ZM31.36 9.21L31.36 9.21Q31.36 11.19 30.43 12.16Q29.50 13.13 27.71 13.13L27.71 13.13Q26.87 13.13 26.20 12.89Q25.53 12.65 25.06 12.16Q24.59 11.68 24.34 10.94Q24.09 10.20 24.09 9.21L24.09 9.21Q24.09 7.24 25.02 6.28Q25.94 5.31 27.75 5.31L27.75 5.31Q28.59 5.31 29.25 5.55Q29.92 5.79 30.39 6.28Q30.86 6.76 31.11 7.50Q31.36 8.23 31.36 9.21ZM26.26 9.21L26.26 9.21Q26.26 9.96 26.34 10.53Q26.42 11.09 26.60 11.48Q26.77 11.86 27.05 12.06Q27.33 12.25 27.73 12.25L27.73 12.25Q28.14 12.25 28.41 12.06Q28.69 11.86 28.86 11.48Q29.04 11.09 29.11 10.53Q29.19 9.96 29.19 9.21L29.19 9.21Q29.19 8.46 29.11 7.90Q29.03 7.33 28.86 6.96Q28.68 6.58 28.40 6.40Q28.12 6.21 27.72 6.21L27.72 6.21Q27.32 6.21 27.04 6.40Q26.76 6.58 26.58 6.96Q26.41 7.33 26.34 7.90Q26.26 8.46 26.26 9.21ZM41.00 13.00L38.21 13.00L37.91 12.00L37.84 12.00Q37.63 12.37 37.38 12.59Q37.13 12.81 36.85 12.93Q36.57 13.05 36.26 13.09Q35.95 13.13 35.62 13.13L35.62 13.13Q34.53 13.13 33.94 12.46Q33.36 11.78 33.36 10.36L33.36 10.36L33.36 7.23Q33.36 6.92 33.30 6.73Q33.25 6.54 33.13 6.43Q33.02 6.32 32.84 6.28Q32.66 6.23 32.40 6.23L32.40 6.23L32.38 6.23L32.38 5.49L35.49 5.49L35.49 9.97Q35.49 10.42 35.54 10.79Q35.59 11.15 35.71 11.41Q35.83 11.66 36.04 11.80Q36.24 11.94 36.55 11.94L36.55 11.94Q36.89 11.94 37.13 11.80Q37.37 11.65 37.53 11.37Q37.68 11.09 37.75 10.70Q37.82 10.31 37.82 9.82L37.82 9.82L37.82 7.13Q37.82 6.82 37.74 6.64Q37.66 6.47 37.52 6.37Q37.39 6.28 37.20 6.26Q37.02 6.23 36.81 6.23L36.81 6.23L36.77 6.23L36.77 5.49L39.95 5.49L39.95 11.37Q39.95 11.68 40.02 11.85Q40.09 12.02 40.22 12.11Q40.34 12.20 40.51 12.23Q40.68 12.25 40.89 12.25L40.89 12.25L41.00 12.25L41.00 13.00ZM45.75 12.00L45.75 12.00Q46.02 12.00 46.27 11.97Q46.52 11.93 46.74 11.87L46.74 11.87L46.74 12.78Q46.63 12.84 46.44 12.90Q46.25 12.96 46.00 13.01Q45.75 13.06 45.44 13.10Q45.12 13.13 44.75 13.13L44.75 13.13Q44.28 13.13 43.90 13.02Q43.52 12.91 43.25 12.64Q42.98 12.38 42.84 11.96Q42.70 11.54 42.70 10.92L42.70 10.92L42.70 6.45L41.64 6.45L41.64 5.73Q42.10 5.73 42.45 5.55Q42.81 5.37 43.02 5.14L43.02 5.14Q43.45 4.69 43.66 3.75L43.66 3.75L44.82 3.75L44.82 5.49L46.61 5.49L46.61 6.45L44.82 6.45L44.82 10.78Q44.82 11.42 45.04 11.71Q45.25 12.00 45.75 12.00ZM48.22 3.22L48.22 3.22Q48.22 2.95 48.31 2.76Q48.41 2.57 48.57 2.45Q48.73 2.33 48.94 2.27Q49.16 2.21 49.41 2.21L49.41 2.21Q49.65 2.21 49.87 2.27Q50.09 2.33 50.25 2.45Q50.42 2.57 50.51 2.76Q50.61 2.95 50.61 3.22L50.61 3.22Q50.61 3.48 50.51 3.67Q50.42 3.86 50.25 3.99Q50.09 4.11 49.87 4.17Q49.65 4.23 49.41 4.23L49.41 4.23Q49.16 4.23 48.94 4.17Q48.73 4.11 48.57 3.99Q48.41 3.86 48.31 3.67Q48.22 3.48 48.22 3.22ZM47.26 12.25L47.42 12.25Q47.58 12.25 47.75 12.22Q47.93 12.19 48.07 12.09Q48.22 12.00 48.32 11.82Q48.42 11.64 48.42 11.34L48.42 11.34L48.42 7.09Q48.42 6.81 48.32 6.64Q48.22 6.47 48.07 6.38Q47.92 6.29 47.75 6.26Q47.57 6.23 47.42 6.23L47.42 6.23L47.26 6.23L47.26 5.49L50.54 5.49L50.54 11.34Q50.54 11.64 50.64 11.82Q50.74 12.00 50.89 12.09Q51.04 12.19 51.21 12.22Q51.39 12.25 51.54 12.25L51.54 12.25L51.71 12.25L51.71 13.00L47.26 13.00L47.26 12.25ZM52.19 12.25L52.35 12.25Q52.51 12.25 52.68 12.22Q52.86 12.19 53.00 12.09Q53.15 12.00 53.25 11.82Q53.35 11.64 53.35 11.34L53.35 11.34L53.35 3.95Q53.35 3.67 53.25 3.50Q53.15 3.34 53.00 3.24Q52.85 3.15 52.67 3.12Q52.50 3.10 52.35 3.10L52.35 3.10L52.19 3.10L52.19 2.36L55.47 2.36L55.47 11.34Q55.47 11.64 55.57 11.82Q55.67 12.00 55.82 12.09Q55.97 12.19 56.14 12.22Q56.32 12.25 56.47 12.25L56.47 12.25L56.64 12.25L56.64 13.00L52.19 13.00L52.19 12.25ZM57.85 11.99L57.85 11.99Q57.85 11.67 57.94 11.45Q58.03 11.24 58.18 11.11Q58.34 10.98 58.55 10.92Q58.76 10.87 59.00 10.87L59.00 10.87Q59.23 10.87 59.44 10.92Q59.65 10.98 59.81 11.11Q59.96 11.24 60.06 11.45Q60.15 11.67 60.15 11.99L60.15 11.99Q60.15 12.30 60.06 12.52Q59.96 12.73 59.81 12.86Q59.65 12.99 59.44 13.05Q59.23 13.10 59.00 13.10L59.00 13.10Q58.76 13.10 58.55 13.05Q58.34 12.99 58.18 12.86Q58.03 12.73 57.94 12.52Q57.85 12.30 57.85 11.99ZM70.45 3.86L70.45 11.34Q70.45 11.64 70.51 11.82Q70.56 12.00 70.66 12.09Q70.76 12.19 70.89 12.22Q71.02 12.25 71.17 12.25L71.17 12.25L71.76 12.25L71.76 13.00L66.92 13.00L66.92 12.25L67.51 12.25Q67.67 12.25 67.80 12.22Q67.93 12.19 68.02 12.09Q68.12 12.00 68.17 11.82Q68.23 11.64 68.23 11.34L68.23 11.34L68.23 3.86L67.11 3.86Q66.79 3.86 66.58 3.92Q66.37 3.99 66.24 4.12Q66.10 4.25 66.04 4.43Q65.97 4.61 65.95 4.85L65.95 4.85L65.85 5.71L64.91 5.71L64.98 3.00L73.71 3.00L73.77 5.71L72.84 5.71L72.73 4.85Q72.71 4.61 72.64 4.43Q72.58 4.25 72.44 4.12Q72.31 3.99 72.10 3.92Q71.89 3.86 71.57 3.86L71.57 3.86L70.45 3.86ZM81.42 9.21L81.42 9.21Q81.42 11.19 80.49 12.16Q79.56 13.13 77.77 13.13L77.77 13.13Q76.92 13.13 76.25 12.89Q75.58 12.65 75.12 12.16Q74.65 11.68 74.40 10.94Q74.15 10.20 74.15 9.21L74.15 9.21Q74.15 7.24 75.08 6.28Q76.00 5.31 77.81 5.31L77.81 5.31Q78.65 5.31 79.31 5.55Q79.98 5.79 80.45 6.28Q80.92 6.76 81.17 7.50Q81.42 8.23 81.42 9.21ZM76.32 9.21L76.32 9.21Q76.32 9.96 76.40 10.53Q76.48 11.09 76.65 11.48Q76.83 11.86 77.11 12.06Q77.39 12.25 77.79 12.25L77.79 12.25Q78.20 12.25 78.47 12.06Q78.75 11.86 78.92 11.48Q79.10 11.09 79.17 10.53Q79.25 9.96 79.25 9.21L79.25 9.21Q79.25 8.46 79.17 7.90Q79.09 7.33 78.92 6.96Q78.74 6.58 78.46 6.40Q78.18 6.21 77.78 6.21L77.78 6.21Q77.38 6.21 77.10 6.40Q76.82 6.58 76.64 6.96Q76.47 7.33 76.40 7.90Q76.32 8.46 76.32 9.21ZM91.06 13.00L88.27 13.00L87.96 12.00L87.90 12.00Q87.68 12.37 87.44 12.59Q87.19 12.81 86.91 12.93Q86.63 13.05 86.32 13.09Q86.01 13.13 85.68 13.13L85.68 13.13Q84.59 13.13 84.00 12.46Q83.42 11.78 83.42 10.36L83.42 10.36L83.42 7.23Q83.42 6.92 83.36 6.73Q83.31 6.54 83.19 6.43Q83.08 6.32 82.90 6.28Q82.71 6.23 82.46 6.23L82.46 6.23L82.43 6.23L82.43 5.49L85.54 5.49L85.54 9.97Q85.54 10.42 85.60 10.79Q85.65 11.15 85.77 11.41Q85.89 11.66 86.10 11.80Q86.30 11.94 86.61 11.94L86.61 11.94Q86.95 11.94 87.19 11.80Q87.43 11.65 87.59 11.37Q87.74 11.09 87.81 10.70Q87.88 10.31 87.88 9.82L87.88 9.82L87.88 7.13Q87.88 6.82 87.80 6.64Q87.72 6.47 87.58 6.37Q87.45 6.28 87.26 6.26Q87.08 6.23 86.87 6.23L86.87 6.23L86.83 6.23L86.83 5.49L90.01 5.49L90.01 11.37Q90.01 11.68 90.08 11.85Q90.15 12.02 90.28 12.11Q90.40 12.20 90.57 12.23Q90.74 12.25 90.95 12.25L90.95 12.25L91.06 12.25L91.06 13.00ZM95.81 12.00L95.81 12.00Q96.08 12.00 96.33 11.97Q96.58 11.93 96.80 11.87L96.80 11.87L96.80 12.78Q96.69 12.84 96.50 12.90Q96.31 12.96 96.06 13.01Q95.81 13.06 95.50 13.10Q95.18 13.13 94.81 13.13L94.81 13.13Q94.34 13.13 93.96 13.02Q93.58 12.91 93.31 12.64Q93.04 12.38 92.90 11.96Q92.76 11.54 92.76 10.92L92.76 10.92L92.76 6.45L91.70 6.45L91.70 5.73Q92.16 5.73 92.51 5.55Q92.87 5.37 93.08 5.14L93.08 5.14Q93.51 4.69 93.72 3.75L93.72 3.75L94.88 3.75L94.88 5.49L96.67 5.49L96.67 6.45L94.88 6.45L94.88 10.78Q94.88 11.42 95.10 11.71Q95.31 12.00 95.81 12.00ZM101.23 6.22L101.23 6.22Q100.65 6.22 100.30 6.80Q99.96 7.38 99.92 8.50L99.92 8.50L102.34 8.50Q102.34 7.97 102.28 7.55Q102.22 7.12 102.08 6.83Q101.95 6.54 101.74 6.38Q101.53 6.22 101.23 6.22ZM101.36 13.13L101.36 13.13Q100.47 13.13 99.79 12.87Q99.11 12.61 98.66 12.12Q98.20 11.63 97.97 10.91Q97.73 10.20 97.73 9.28L97.73 9.28Q97.73 8.30 97.97 7.55Q98.20 6.81 98.64 6.31Q99.09 5.81 99.73 5.56Q100.38 5.31 101.21 5.31L101.21 5.31Q101.96 5.31 102.57 5.53Q103.18 5.74 103.61 6.17Q104.03 6.59 104.25 7.22Q104.48 7.85 104.48 8.68L104.48 8.68L104.48 9.40L99.89 9.40Q99.91 10.10 100.05 10.61Q100.18 11.12 100.42 11.44Q100.65 11.77 100.99 11.93Q101.33 12.09 101.77 12.09L101.77 12.09Q102.13 12.09 102.44 12.00Q102.74 11.92 102.99 11.76Q103.24 11.61 103.43 11.40Q103.62 11.19 103.74 10.95L103.74 10.95Q104.12 11.16 104.12 11.63L104.12 11.63Q104.12 11.94 103.95 12.21Q103.79 12.48 103.45 12.68Q103.11 12.89 102.59 13.01Q102.07 13.13 101.36 13.13ZM108.30 13.13L108.30 13.13Q107.54 13.13 107.01 13.01Q106.47 12.89 106.13 12.67Q105.79 12.45 105.64 12.15Q105.49 11.85 105.49 11.50L105.49 11.50Q105.49 11.16 105.62 10.95Q105.75 10.74 105.95 10.62Q106.16 10.51 106.38 10.47Q106.61 10.43 106.79 10.43L106.79 10.43Q106.79 10.87 106.90 11.22Q107.01 11.57 107.21 11.81Q107.41 12.05 107.68 12.18Q107.96 12.31 108.30 12.31L108.30 12.31Q108.66 12.31 108.93 12.24Q109.19 12.16 109.36 12.03Q109.53 11.89 109.61 11.72Q109.69 11.55 109.69 11.35L109.69 11.35Q109.69 11.12 109.60 10.94Q109.52 10.76 109.32 10.60Q109.12 10.44 108.79 10.28Q108.46 10.13 107.97 9.96L107.97 9.96Q107.40 9.76 106.97 9.54Q106.53 9.32 106.23 9.03Q105.94 8.75 105.78 8.38Q105.63 8.02 105.63 7.55L105.63 7.55Q105.63 6.99 105.84 6.57Q106.06 6.15 106.46 5.88Q106.85 5.60 107.41 5.46Q107.96 5.33 108.64 5.33L108.64 5.33Q109.30 5.33 109.76 5.44Q110.23 5.55 110.52 5.74Q110.82 5.92 110.95 6.15Q111.09 6.38 111.09 6.62L111.09 6.62Q111.09 7.10 110.76 7.34Q110.43 7.59 109.66 7.59L109.66 7.59Q109.66 6.89 109.35 6.50Q109.04 6.12 108.43 6.12L108.43 6.12Q108.21 6.12 108.00 6.17Q107.79 6.23 107.64 6.34Q107.48 6.45 107.39 6.61Q107.30 6.77 107.30 6.99L107.30 6.99Q107.30 7.21 107.38 7.39Q107.47 7.57 107.68 7.73Q107.90 7.89 108.27 8.05Q108.64 8.22 109.21 8.42L109.21 8.42Q109.68 8.58 110.07 8.79Q110.46 9.00 110.75 9.27Q111.03 9.54 111.19 9.88Q111.34 10.23 111.34 10.67L111.34 10.67Q111.34 11.25 111.14 11.71Q110.94 12.17 110.55 12.48Q110.16 12.80 109.59 12.96Q109.03 13.13 108.30 13.13ZM124.02 5.49L124.02 6.23L123.74 6.23Q123.59 6.23 123.48 6.27Q123.37 6.30 123.26 6.41Q123.16 6.51 123.05 6.72Q122.95 6.92 122.83 7.25L122.83 7.25L120.80 13.00L118.95 13.00L116.66 6.90Q116.58 6.71 116.48 6.58Q116.38 6.45 116.25 6.37Q116.12 6.30 115.94 6.27Q115.77 6.23 115.53 6.23L115.53 6.23L115.53 5.49L119.88 5.49L119.88 6.23L119.29 6.23Q119.08 6.23 118.95 6.35Q118.82 6.46 118.82 6.68L118.82 6.68Q118.82 6.85 118.87 7.01Q118.91 7.18 118.95 7.29L118.95 7.29L119.89 9.95Q120.06 10.39 120.19 10.84Q120.31 11.29 120.38 11.65L120.38 11.65Q120.42 11.48 120.48 11.27Q120.54 11.05 120.60 10.84Q120.66 10.63 120.71 10.46Q120.76 10.29 120.78 10.22L120.78 10.22L121.73 7.41Q121.80 7.22 121.85 7.02Q121.89 6.83 121.89 6.64L121.89 6.64Q121.89 6.41 121.74 6.32Q121.58 6.23 121.34 6.23L121.34 6.23L120.94 6.23L120.94 5.49L124.02 5.49ZM131.94 9.21L131.94 9.21Q131.94 11.19 131.01 12.16Q130.09 13.13 128.29 13.13L128.29 13.13Q127.45 13.13 126.78 12.89Q126.11 12.65 125.64 12.16Q125.17 11.68 124.92 10.94Q124.67 10.20 124.67 9.21L124.67 9.21Q124.67 7.24 125.60 6.28Q126.53 5.31 128.33 5.31L128.33 5.31Q129.17 5.31 129.84 5.55Q130.50 5.79 130.97 6.28Q131.44 6.76 131.69 7.50Q131.94 8.23 131.94 9.21ZM126.85 9.21L126.85 9.21Q126.85 9.96 126.93 10.53Q127.00 11.09 127.18 11.48Q127.35 11.86 127.63 12.06Q127.91 12.25 128.32 12.25L128.32 12.25Q128.72 12.25 129.00 12.06Q129.27 11.86 129.45 11.48Q129.62 11.09 129.70 10.53Q129.77 9.96 129.77 9.21L129.77 9.21Q129.77 8.46 129.69 7.90Q129.62 7.33 129.44 6.96Q129.27 6.58 128.99 6.40Q128.71 6.21 128.30 6.21L128.30 6.21Q127.90 6.21 127.62 6.40Q127.34 6.58 127.17 6.96Q127.00 7.33 126.92 7.90Q126.85 8.46 126.85 9.21ZM135.83 13.13L135.83 13.13Q135.07 13.13 134.53 13.01Q134.00 12.89 133.66 12.67Q133.32 12.45 133.17 12.15Q133.01 11.85 133.01 11.50L133.01 11.50Q133.01 11.16 133.15 10.95Q133.28 10.74 133.48 10.62Q133.68 10.51 133.91 10.47Q134.13 10.43 134.32 10.43L134.32 10.43Q134.32 10.87 134.43 11.22Q134.54 11.57 134.74 11.81Q134.93 12.05 135.21 12.18Q135.49 12.31 135.83 12.31L135.83 12.31Q136.19 12.31 136.46 12.24Q136.72 12.16 136.89 12.03Q137.05 11.89 137.14 11.72Q137.22 11.55 137.22 11.35L137.22 11.35Q137.22 11.12 137.13 10.94Q137.05 10.76 136.85 10.60Q136.65 10.44 136.32 10.28Q135.99 10.13 135.50 9.96L135.50 9.96Q134.93 9.76 134.49 9.54Q134.06 9.32 133.76 9.03Q133.46 8.75 133.31 8.38Q133.16 8.02 133.16 7.55L133.16 7.55Q133.16 6.99 133.37 6.57Q133.59 6.15 133.98 5.88Q134.38 5.60 134.93 5.46Q135.49 5.33 136.17 5.33L136.17 5.33Q136.83 5.33 137.29 5.44Q137.76 5.55 138.05 5.74Q138.35 5.92 138.48 6.15Q138.62 6.38 138.62 6.62L138.62 6.62Q138.62 7.10 138.29 7.34Q137.96 7.59 137.19 7.59L137.19 7.59Q137.19 6.89 136.88 6.50Q136.57 6.12 135.96 6.12L135.96 6.12Q135.73 6.12 135.53 6.17Q135.32 6.23 135.16 6.34Q135.01 6.45 134.92 6.61Q134.83 6.77 134.83 6.99L134.83 6.99Q134.83 7.21 134.91 7.39Q135.00 7.57 135.21 7.73Q135.43 7.89 135.80 8.05Q136.17 8.22 136.74 8.42L136.74 8.42Q137.20 8.58 137.60 8.79Q137.99 9.00 138.27 9.27Q138.56 9.54 138.71 9.88Q138.87 10.23 138.87 10.67L138.87 10.67Q138.87 11.25 138.67 11.71Q138.47 12.17 138.08 12.48Q137.69 12.80 137.12 12.96Q136.55 13.13 135.83 13.13ZM150.99 9.21L150.99 9.21Q150.99 11.19 150.06 12.16Q149.13 13.13 147.33 13.13L147.33 13.13Q146.49 13.13 145.82 12.89Q145.15 12.65 144.69 12.16Q144.22 11.68 143.97 10.94Q143.72 10.20 143.72 9.21L143.72 9.21Q143.72 7.24 144.65 6.28Q145.57 5.31 147.38 5.31L147.38 5.31Q148.22 5.31 148.88 5.55Q149.55 5.79 150.02 6.28Q150.49 6.76 150.74 7.50Q150.99 8.23 150.99 9.21ZM145.89 9.21L145.89 9.21Q145.89 9.96 145.97 10.53Q146.05 11.09 146.22 11.48Q146.40 11.86 146.68 12.06Q146.96 12.25 147.36 12.25L147.36 12.25Q147.77 12.25 148.04 12.06Q148.32 11.86 148.49 11.48Q148.67 11.09 148.74 10.53Q148.82 9.96 148.82 9.21L148.82 9.21Q148.82 8.46 148.74 7.90Q148.66 7.33 148.49 6.96Q148.31 6.58 148.03 6.40Q147.75 6.21 147.35 6.21L147.35 6.21Q146.95 6.21 146.67 6.40Q146.38 6.58 146.21 6.96Q146.04 7.33 145.97 7.90Q145.89 8.46 145.89 9.21ZM156.60 12.25L156.60 13.00L151.92 13.00L151.92 12.25L151.96 12.25Q152.20 12.25 152.40 12.22Q152.60 12.18 152.74 12.08Q152.89 11.97 152.96 11.77Q153.04 11.57 153.04 11.25L153.04 11.25L153.04 7.18Q153.04 6.88 152.97 6.69Q152.90 6.50 152.77 6.40Q152.63 6.30 152.45 6.27Q152.26 6.23 152.03 6.23L152.03 6.23L151.99 6.23L151.99 5.49L154.82 5.49L155.10 6.58L155.17 6.58Q155.31 6.27 155.47 6.03Q155.63 5.80 155.86 5.64Q156.09 5.48 156.40 5.40Q156.71 5.33 157.14 5.33L157.14 5.33Q157.97 5.33 158.36 5.62Q158.75 5.91 158.75 6.46L158.75 6.46Q158.75 7.10 158.29 7.46Q157.82 7.81 156.97 7.81L156.97 7.81Q156.97 7.53 156.94 7.31Q156.91 7.09 156.83 6.95Q156.75 6.80 156.62 6.73Q156.49 6.65 156.29 6.65L156.29 6.65Q156.04 6.65 155.87 6.77Q155.69 6.90 155.57 7.09Q155.44 7.29 155.36 7.53Q155.29 7.78 155.24 8.03Q155.20 8.28 155.18 8.50Q155.17 8.73 155.17 8.89L155.17 8.89L155.17 11.31Q155.17 11.62 155.24 11.81Q155.32 12.00 155.45 12.09Q155.58 12.19 155.76 12.22Q155.94 12.25 156.15 12.25L156.15 12.25L156.60 12.25ZM166.74 5.76L166.74 5.76Q166.74 5.91 166.69 6.06Q166.64 6.21 166.53 6.32Q166.41 6.43 166.22 6.49Q166.02 6.56 165.74 6.56L165.74 6.56Q165.74 6.41 165.69 6.30Q165.65 6.19 165.57 6.12Q165.50 6.04 165.40 6.01Q165.31 5.97 165.20 5.97L165.20 5.97Q165.09 5.97 164.95 6.02Q164.82 6.06 164.75 6.12L164.75 6.12Q164.89 6.28 165.01 6.48Q165.14 6.68 165.23 6.91Q165.32 7.14 165.38 7.39Q165.43 7.64 165.43 7.90L165.43 7.90Q165.43 8.43 165.26 8.88Q165.09 9.32 164.75 9.65Q164.40 9.98 163.86 10.17Q163.33 10.35 162.60 10.35L162.60 10.35Q162.52 10.35 162.41 10.35Q162.29 10.34 162.18 10.34Q162.06 10.34 161.95 10.33Q161.85 10.32 161.79 10.31L161.79 10.31Q161.70 10.36 161.61 10.43Q161.52 10.50 161.45 10.59Q161.38 10.68 161.33 10.79Q161.29 10.90 161.29 11.02L161.29 11.02Q161.29 11.25 161.47 11.36Q161.65 11.47 161.94 11.47L161.94 11.47L163.64 11.47Q164.34 11.47 164.84 11.62Q165.35 11.76 165.68 12.04Q166.01 12.31 166.17 12.71Q166.33 13.11 166.33 13.61L166.33 13.61Q166.33 14.26 166.08 14.77Q165.83 15.28 165.33 15.63Q164.83 15.98 164.07 16.17Q163.30 16.36 162.26 16.36L162.26 16.36Q160.61 16.36 159.80 15.86Q158.99 15.37 158.99 14.41L158.99 14.41Q158.99 13.66 159.48 13.26Q159.96 12.86 160.88 12.78L160.88 12.78Q160.69 12.71 160.51 12.60Q160.32 12.49 160.18 12.34Q160.04 12.18 159.95 11.98Q159.86 11.79 159.86 11.54L159.86 11.54Q159.86 11.31 159.95 11.11Q160.04 10.91 160.21 10.73Q160.37 10.55 160.60 10.39Q160.83 10.23 161.10 10.07L161.10 10.07Q160.79 9.96 160.53 9.77Q160.27 9.57 160.08 9.30Q159.89 9.02 159.78 8.67Q159.67 8.33 159.67 7.90L159.67 7.90Q159.67 6.67 160.39 5.99Q161.10 5.31 162.60 5.31L162.60 5.31Q163.10 5.31 163.53 5.44Q163.95 5.56 164.27 5.74L164.27 5.74Q164.38 5.62 164.52 5.48Q164.66 5.34 164.84 5.22Q165.02 5.11 165.24 5.03Q165.46 4.96 165.72 4.96L165.72 4.96Q165.98 4.96 166.16 5.02Q166.35 5.09 166.48 5.20Q166.61 5.30 166.67 5.45Q166.74 5.59 166.74 5.76ZM160.64 14.38L160.64 14.38Q160.64 14.96 161.06 15.24Q161.49 15.52 162.29 15.52L162.29 15.52Q163.52 15.52 164.08 15.16Q164.64 14.81 164.64 14.12L164.64 14.12Q164.64 13.67 164.36 13.49Q164.08 13.32 163.52 13.32L163.52 13.32L161.89 13.32Q161.68 13.32 161.46 13.35Q161.24 13.39 161.06 13.51Q160.88 13.62 160.76 13.83Q160.64 14.04 160.64 14.38ZM161.58 7.90L161.58 7.90Q161.58 8.27 161.63 8.57Q161.68 8.87 161.80 9.08Q161.92 9.29 162.10 9.41Q162.29 9.52 162.56 9.52L162.56 9.52Q162.84 9.52 163.02 9.41Q163.21 9.30 163.32 9.08Q163.43 8.87 163.47 8.56Q163.52 8.26 163.52 7.88L163.52 7.88Q163.52 7.49 163.47 7.17Q163.42 6.86 163.31 6.63Q163.19 6.41 163.01 6.28Q162.83 6.15 162.54 6.15L162.54 6.15Q162.27 6.15 162.09 6.28Q161.90 6.41 161.79 6.64Q161.68 6.88 161.63 7.20Q161.58 7.52 161.58 7.90ZM169.61 10.91L169.61 10.91Q169.61 11.51 169.80 11.81Q169.99 12.11 170.40 12.11L170.40 12.11Q170.70 12.11 170.94 11.99Q171.19 11.86 171.36 11.63Q171.53 11.40 171.63 11.06Q171.72 10.73 171.72 10.32L171.72 10.32L171.72 9.27L171.09 9.31Q170.67 9.33 170.39 9.44Q170.10 9.56 169.93 9.75Q169.76 9.95 169.68 10.24Q169.61 10.53 169.61 10.91ZM170.85 6.17L170.85 6.17Q170.58 6.17 170.40 6.28Q170.22 6.39 170.11 6.59Q170.00 6.79 169.96 7.07Q169.91 7.35 169.91 7.68L169.91 7.68Q168.97 7.68 168.50 7.46Q168.02 7.25 168.02 6.74L168.02 6.74Q168.02 6.36 168.25 6.08Q168.48 5.81 168.87 5.64Q169.26 5.47 169.79 5.39Q170.31 5.31 170.91 5.31L170.91 5.31Q171.64 5.31 172.19 5.44Q172.74 5.56 173.11 5.84Q173.48 6.13 173.66 6.58Q173.84 7.03 173.84 7.69L173.84 7.69L173.84 11.26Q173.84 11.55 173.89 11.74Q173.93 11.93 174.03 12.04Q174.13 12.15 174.29 12.20Q174.45 12.25 174.69 12.25L174.69 12.25L174.74 12.25L174.74 13.00L172.14 13.00L171.84 12.03L171.72 12.03Q171.49 12.31 171.28 12.52Q171.08 12.73 170.84 12.87Q170.61 13.00 170.32 13.07Q170.03 13.13 169.63 13.13L169.63 13.13Q169.17 13.13 168.77 13.00Q168.37 12.86 168.07 12.57Q167.77 12.29 167.60 11.86Q167.43 11.44 167.43 10.86L167.43 10.86Q167.43 9.71 168.22 9.17Q169.00 8.62 170.57 8.57L170.57 8.57L171.72 8.53L171.72 7.76Q171.72 7.41 171.69 7.12Q171.66 6.82 171.58 6.61Q171.49 6.40 171.31 6.28Q171.14 6.17 170.85 6.17ZM184.17 13.00L181.06 13.00L181.06 8.39Q181.06 7.94 181.00 7.58Q180.94 7.23 180.81 6.99Q180.67 6.75 180.46 6.63Q180.24 6.50 179.94 6.50L179.94 6.50Q179.59 6.50 179.35 6.68Q179.12 6.86 178.98 7.15Q178.84 7.45 178.78 7.84Q178.72 8.24 178.72 8.67L178.72 8.67L178.72 11.34Q178.72 11.63 178.79 11.81Q178.86 11.99 178.99 12.09Q179.12 12.19 179.31 12.22Q179.50 12.25 179.73 12.25L179.73 12.25L179.77 12.25L179.77 13.00L175.47 13.00L175.47 12.25L175.50 12.25Q175.74 12.25 175.94 12.22Q176.13 12.19 176.28 12.09Q176.43 11.98 176.51 11.79Q176.59 11.60 176.59 11.29L176.59 11.29L176.59 7.14Q176.59 6.85 176.52 6.67Q176.45 6.49 176.32 6.40Q176.18 6.30 176.00 6.27Q175.81 6.23 175.58 6.23L175.58 6.23L175.54 6.23L175.54 5.49L178.48 5.49L178.66 6.49L178.73 6.49Q178.94 6.09 179.18 5.86Q179.42 5.63 179.68 5.50Q179.95 5.38 180.25 5.35Q180.54 5.31 180.87 5.31L180.87 5.31Q181.41 5.31 181.84 5.47Q182.27 5.63 182.57 5.95Q182.87 6.28 183.03 6.79Q183.18 7.30 183.18 8.01L183.18 8.01L183.18 11.26Q183.18 11.59 183.24 11.78Q183.30 11.98 183.42 12.08Q183.53 12.18 183.71 12.22Q183.89 12.25 184.13 12.25L184.13 12.25L184.17 12.25L184.17 13.00ZM185.73 3.22L185.73 3.22Q185.73 2.95 185.82 2.76Q185.92 2.57 186.08 2.45Q186.24 2.33 186.45 2.27Q186.67 2.21 186.92 2.21L186.92 2.21Q187.16 2.21 187.38 2.27Q187.60 2.33 187.76 2.45Q187.93 2.57 188.03 2.76Q188.13 2.95 188.13 3.22L188.13 3.22Q188.13 3.48 188.03 3.67Q187.93 3.86 187.76 3.99Q187.60 4.11 187.38 4.17Q187.16 4.23 186.92 4.23L186.92 4.23Q186.67 4.23 186.45 4.17Q186.24 4.11 186.08 3.99Q185.92 3.86 185.82 3.67Q185.73 3.48 185.73 3.22ZM184.77 12.25L184.93 12.25Q185.09 12.25 185.26 12.22Q185.44 12.19 185.59 12.09Q185.73 12.00 185.83 11.82Q185.93 11.64 185.93 11.34L185.93 11.34L185.93 7.09Q185.93 6.81 185.83 6.64Q185.73 6.47 185.58 6.38Q185.43 6.29 185.26 6.26Q185.08 6.23 184.93 6.23L184.93 6.23L184.77 6.23L184.77 5.49L188.06 5.49L188.06 11.34Q188.06 11.64 188.16 11.82Q188.25 12.00 188.40 12.09Q188.55 12.19 188.73 12.22Q188.90 12.25 189.05 12.25L189.05 12.25L189.22 12.25L189.22 13.00L184.77 13.00L184.77 12.25ZM192.69 13.13L192.69 13.13Q191.93 13.13 191.40 13.01Q190.86 12.89 190.52 12.67Q190.18 12.45 190.03 12.15Q189.88 11.85 189.88 11.50L189.88 11.50Q189.88 11.16 190.01 10.95Q190.14 10.74 190.34 10.62Q190.54 10.51 190.77 10.47Q191.00 10.43 191.18 10.43L191.18 10.43Q191.18 10.87 191.29 11.22Q191.40 11.57 191.60 11.81Q191.80 12.05 192.07 12.18Q192.35 12.31 192.69 12.31L192.69 12.31Q193.05 12.31 193.32 12.24Q193.58 12.16 193.75 12.03Q193.92 11.89 194.00 11.72Q194.08 11.55 194.08 11.35L194.08 11.35Q194.08 11.12 193.99 10.94Q193.91 10.76 193.71 10.60Q193.51 10.44 193.18 10.28Q192.85 10.13 192.36 9.96L192.36 9.96Q191.79 9.76 191.35 9.54Q190.92 9.32 190.62 9.03Q190.33 8.75 190.17 8.38Q190.02 8.02 190.02 7.55L190.02 7.55Q190.02 6.99 190.23 6.57Q190.45 6.15 190.85 5.88Q191.24 5.60 191.80 5.46Q192.35 5.33 193.03 5.33L193.03 5.33Q193.69 5.33 194.15 5.44Q194.62 5.55 194.91 5.74Q195.21 5.92 195.34 6.15Q195.48 6.38 195.48 6.62L195.48 6.62Q195.48 7.10 195.15 7.34Q194.82 7.59 194.05 7.59L194.05 7.59Q194.05 6.89 193.74 6.50Q193.43 6.12 192.82 6.12L192.82 6.12Q192.60 6.12 192.39 6.17Q192.18 6.23 192.02 6.34Q191.87 6.45 191.78 6.61Q191.69 6.77 191.69 6.99L191.69 6.99Q191.69 7.21 191.77 7.39Q191.86 7.57 192.07 7.73Q192.29 7.89 192.66 8.05Q193.03 8.22 193.60 8.42L193.60 8.42Q194.07 8.58 194.46 8.79Q194.85 9.00 195.14 9.27Q195.42 9.54 195.58 9.88Q195.73 10.23 195.73 10.67L195.73 10.67Q195.73 11.25 195.53 11.71Q195.33 12.17 194.94 12.48Q194.55 12.80 193.98 12.96Q193.42 13.13 192.69 13.13ZM199.09 10.91L199.09 10.91Q199.09 11.51 199.28 11.81Q199.47 12.11 199.88 12.11L199.88 12.11Q200.18 12.11 200.43 11.99Q200.67 11.86 200.84 11.63Q201.02 11.40 201.11 11.06Q201.20 10.73 201.20 10.32L201.20 10.32L201.20 9.27L200.57 9.31Q200.16 9.33 199.87 9.44Q199.58 9.56 199.41 9.75Q199.24 9.95 199.17 10.24Q199.09 10.53 199.09 10.91ZM200.33 6.17L200.33 6.17Q200.07 6.17 199.89 6.28Q199.71 6.39 199.60 6.59Q199.49 6.79 199.44 7.07Q199.40 7.35 199.40 7.68L199.40 7.68Q198.45 7.68 197.98 7.46Q197.50 7.25 197.50 6.74L197.50 6.74Q197.50 6.36 197.73 6.08Q197.96 5.81 198.35 5.64Q198.75 5.47 199.27 5.39Q199.79 5.31 200.39 5.31L200.39 5.31Q201.13 5.31 201.68 5.44Q202.23 5.56 202.59 5.84Q202.96 6.13 203.14 6.58Q203.33 7.03 203.33 7.69L203.33 7.69L203.33 11.26Q203.33 11.55 203.37 11.74Q203.42 11.93 203.51 12.04Q203.61 12.15 203.77 12.20Q203.94 12.25 204.17 12.25L204.17 12.25L204.22 12.25L204.22 13.00L201.62 13.00L201.33 12.03L201.20 12.03Q200.97 12.31 200.76 12.52Q200.56 12.73 200.33 12.87Q200.09 13.00 199.80 13.07Q199.51 13.13 199.12 13.13L199.12 13.13Q198.65 13.13 198.25 13.00Q197.85 12.86 197.56 12.57Q197.26 12.29 197.09 11.86Q196.92 11.44 196.92 10.86L196.92 10.86Q196.92 9.71 197.70 9.17Q198.48 8.62 200.05 8.57L200.05 8.57L201.20 8.53L201.20 7.76Q201.20 7.41 201.17 7.12Q201.15 6.82 201.06 6.61Q200.97 6.40 200.80 6.28Q200.62 6.17 200.33 6.17ZM209.07 12.00L209.07 12.00Q209.34 12.00 209.59 11.97Q209.84 11.93 210.06 11.87L210.06 11.87L210.06 12.78Q209.95 12.84 209.76 12.90Q209.58 12.96 209.33 13.01Q209.08 13.06 208.76 13.10Q208.45 13.13 208.08 13.13L208.08 13.13Q207.61 13.13 207.22 13.02Q206.84 12.91 206.58 12.64Q206.31 12.38 206.17 11.96Q206.02 11.54 206.02 10.92L206.02 10.92L206.02 6.45L204.97 6.45L204.97 5.73Q205.42 5.73 205.78 5.55Q206.13 5.37 206.34 5.14L206.34 5.14Q206.77 4.69 206.99 3.75L206.99 3.75L208.15 3.75L208.15 5.49L209.94 5.49L209.94 6.45L208.15 6.45L208.15 10.78Q208.15 11.42 208.36 11.71Q208.58 12.00 209.07 12.00ZM211.54 3.22L211.54 3.22Q211.54 2.95 211.64 2.76Q211.73 2.57 211.89 2.45Q212.05 2.33 212.27 2.27Q212.48 2.21 212.73 2.21L212.73 2.21Q212.97 2.21 213.19 2.27Q213.41 2.33 213.58 2.45Q213.74 2.57 213.84 2.76Q213.94 2.95 213.94 3.22L213.94 3.22Q213.94 3.48 213.84 3.67Q213.74 3.86 213.58 3.99Q213.41 4.11 213.19 4.17Q212.97 4.23 212.73 4.23L212.73 4.23Q212.48 4.23 212.27 4.17Q212.05 4.11 211.89 3.99Q211.73 3.86 211.64 3.67Q211.54 3.48 211.54 3.22ZM210.58 12.25L210.75 12.25Q210.90 12.25 211.08 12.22Q211.25 12.19 211.40 12.09Q211.54 12.00 211.64 11.82Q211.74 11.64 211.74 11.34L211.74 11.34L211.74 7.09Q211.74 6.81 211.64 6.64Q211.54 6.47 211.39 6.38Q211.24 6.29 211.07 6.26Q210.90 6.23 210.75 6.23L210.75 6.23L210.58 6.23L210.58 5.49L213.87 5.49L213.87 11.34Q213.87 11.64 213.97 11.82Q214.07 12.00 214.21 12.09Q214.36 12.19 214.54 12.22Q214.72 12.25 214.87 12.25L214.87 12.25L215.03 12.25L215.03 13.00L210.58 13.00L210.58 12.25ZM223.19 9.21L223.19 9.21Q223.19 11.19 222.27 12.16Q221.34 13.13 219.54 13.13L219.54 13.13Q218.70 13.13 218.03 12.89Q217.36 12.65 216.89 12.16Q216.43 11.68 216.18 10.94Q215.93 10.20 215.93 9.21L215.93 9.21Q215.93 7.24 216.85 6.28Q217.78 5.31 219.58 5.31L219.58 5.31Q220.42 5.31 221.09 5.55Q221.76 5.79 222.23 6.28Q222.69 6.76 222.94 7.50Q223.19 8.23 223.19 9.21ZM218.10 9.21L218.10 9.21Q218.10 9.96 218.18 10.53Q218.26 11.09 218.43 11.48Q218.61 11.86 218.89 12.06Q219.17 12.25 219.57 12.25L219.57 12.25Q219.97 12.25 220.25 12.06Q220.53 11.86 220.70 11.48Q220.88 11.09 220.95 10.53Q221.03 9.96 221.03 9.21L221.03 9.21Q221.03 8.46 220.95 7.90Q220.87 7.33 220.69 6.96Q220.52 6.58 220.24 6.40Q219.96 6.21 219.56 6.21L219.56 6.21Q219.15 6.21 218.87 6.40Q218.59 6.58 218.42 6.96Q218.25 7.33 218.18 7.90Q218.10 8.46 218.10 9.21ZM232.83 13.00L229.71 13.00L229.71 8.39Q229.71 7.94 229.66 7.58Q229.60 7.23 229.47 6.99Q229.33 6.75 229.12 6.63Q228.90 6.50 228.59 6.50L228.59 6.50Q228.25 6.50 228.01 6.68Q227.78 6.86 227.64 7.15Q227.50 7.45 227.44 7.84Q227.38 8.24 227.38 8.67L227.38 8.67L227.38 11.34Q227.38 11.63 227.45 11.81Q227.52 11.99 227.65 12.09Q227.78 12.19 227.97 12.22Q228.16 12.25 228.39 12.25L228.39 12.25L228.43 12.25L228.43 13.00L224.13 13.00L224.13 12.25L224.16 12.25Q224.40 12.25 224.59 12.22Q224.79 12.19 224.94 12.09Q225.09 11.98 225.17 11.79Q225.25 11.60 225.25 11.29L225.25 11.29L225.25 7.14Q225.25 6.85 225.18 6.67Q225.11 6.49 224.97 6.40Q224.84 6.30 224.66 6.27Q224.47 6.23 224.24 6.23L224.24 6.23L224.20 6.23L224.20 5.49L227.14 5.49L227.32 6.49L227.39 6.49Q227.60 6.09 227.84 5.86Q228.07 5.63 228.34 5.50Q228.61 5.38 228.90 5.35Q229.20 5.31 229.53 5.31L229.53 5.31Q230.07 5.31 230.50 5.47Q230.93 5.63 231.23 5.95Q231.53 6.28 231.68 6.79Q231.84 7.30 231.84 8.01L231.84 8.01L231.84 11.26Q231.84 11.59 231.90 11.78Q231.96 11.98 232.07 12.08Q232.19 12.18 232.37 12.22Q232.54 12.25 232.78 12.25L232.78 12.25L232.83 12.25L232.83 13.00ZM236.42 13.13L236.42 13.13Q235.66 13.13 235.13 13.01Q234.59 12.89 234.25 12.67Q233.91 12.45 233.76 12.15Q233.60 11.85 233.60 11.50L233.60 11.50Q233.60 11.16 233.74 10.95Q233.87 10.74 234.07 10.62Q234.27 10.51 234.50 10.47Q234.73 10.43 234.91 10.43L234.91 10.43Q234.91 10.87 235.02 11.22Q235.13 11.57 235.33 11.81Q235.53 12.05 235.80 12.18Q236.08 12.31 236.42 12.31L236.42 12.31Q236.78 12.31 237.05 12.24Q237.31 12.16 237.48 12.03Q237.64 11.89 237.73 11.72Q237.81 11.55 237.81 11.35L237.81 11.35Q237.81 11.12 237.72 10.94Q237.64 10.76 237.44 10.60Q237.24 10.44 236.91 10.28Q236.58 10.13 236.09 9.96L236.09 9.96Q235.52 9.76 235.08 9.54Q234.65 9.32 234.35 9.03Q234.06 8.75 233.90 8.38Q233.75 8.02 233.75 7.55L233.75 7.55Q233.75 6.99 233.96 6.57Q234.18 6.15 234.58 5.88Q234.97 5.60 235.53 5.46Q236.08 5.33 236.76 5.33L236.76 5.33Q237.42 5.33 237.88 5.44Q238.35 5.55 238.64 5.74Q238.94 5.92 239.07 6.15Q239.21 6.38 239.21 6.62L239.21 6.62Q239.21 7.10 238.88 7.34Q238.55 7.59 237.78 7.59L237.78 7.59Q237.78 6.89 237.47 6.50Q237.16 6.12 236.55 6.12L236.55 6.12Q236.33 6.12 236.12 6.17Q235.91 6.23 235.75 6.34Q235.60 6.45 235.51 6.61Q235.42 6.77 235.42 6.99L235.42 6.99Q235.42 7.21 235.50 7.39Q235.59 7.57 235.80 7.73Q236.02 7.89 236.39 8.05Q236.76 8.22 237.33 8.42L237.33 8.42Q237.79 8.58 238.19 8.79Q238.58 9.00 238.86 9.27Q239.15 9.54 239.31 9.88Q239.46 10.23 239.46 10.67L239.46 10.67Q239.46 11.25 239.26 11.71Q239.06 12.17 238.67 12.48Q238.28 12.80 237.71 12.96Q237.15 13.13 236.42 13.13ZM240.99 11.99L240.99 11.99Q240.99 11.67 241.08 11.45Q241.17 11.24 241.33 11.11Q241.48 10.98 241.69 10.92Q241.90 10.87 242.14 10.87L242.14 10.87Q242.38 10.87 242.58 10.92Q242.79 10.98 242.95 11.11Q243.11 11.24 243.20 11.45Q243.29 11.67 243.29 11.99L243.29 11.99Q243.29 12.30 243.20 12.52Q243.11 12.73 242.95 12.86Q242.79 12.99 242.58 13.05Q242.38 13.10 242.14 13.10L242.14 13.10Q241.90 13.10 241.69 13.05Q241.48 12.99 241.33 12.86Q241.17 12.73 241.08 12.52Q240.99 12.30 240.99 11.99Z"></path></g></svg>